<?xml version="1.0" encoding="utf-8"?>
<!-- Generator: Adobe Illustrator 28.0.0, SVG Export Plug-In . SVG Version: 6.00 Build 0)  -->
<svg version="1.1" id="Capa_1" xmlns="http://www.w3.org/2000/svg" xmlns:xlink="http://www.w3.org/1999/xlink" x="0px" y="0px"
	 viewBox="0 0 525.4 377.7" style="enable-background:new 0 0 525.4 377.7;" xml:space="preserve">
<style type="text/css">
	.st0{fill:#FFFFFF;}
	.st1{fill:#FF50B0;}
</style>
<path class="st0" d="M333,63.5l4.3,5.5l4.7,19.1c0,0,1.3,5.1,0,7.8s-2.5,7.9-2.5,7.9l-8,12.7c0,0,2.1,18.1,2.8,20
	c0.7,2,16.6,10.1,16.6,10.1s27.7-15.6,28.5-17.7c0.8-2.1,5.8-24.4,5.8-24.4l-4.1-8.1l-1.2-7l2.4-8.6l2.6-10.4l-5.9-3.7l2.8-4.8
	l7.8-8.4l-10.2-12l-14.5-0.4c0,0-14.8-0.4-17.2,0.2s-18.9,10.3-18.9,10.3"/>
<polyline class="st0" points="153.5,36.2 161.8,33.2 171.2,34.4 180.8,36.2 172,121.6 146.2,121 145.2,75.5 "/>
<g>
	<path class="st1" d="M167.1,191.7c0.7,10.8,1.4,21.6,2.1,32.4c0.3,4.9,0.6,9.8,0.9,14.7c0.5,6.6,0.8,13.3,1.6,19.9
		c0.3,3,1.6,5.8,2.3,8.7c0.8,3.1,1.4,6.3,2.1,9.5c2.3,10.1,3.6,20.3,4.9,30.6c1.6,12.1,2.1,24.3,2.4,36.5c0,0.1,0,0.3,0,0.8
		c-4.9,1-9.7,2.1-14.6,3.1c-2.2,0.4-4.4,0.5-6.6,0.9c-1.3,0.2-2.4-0.3-3.3-1.1c-1.3-1.1-2.7-2.2-4-3.5c-0.6-0.6-1.1-1.4-1.3-2.1
		c-1.6-6-3.1-12.1-4.7-18.1c-1.3-5-2.5-10-3.8-15c-1.2-5.1-2.5-10.2-3.7-15.3c-1.1-4.8-2.3-9.7-3.4-14.5c-1.3-5.5-2.6-11.1-3.8-16.6
		c-1.3-6.1-2.6-12.1-3.7-18.2c-1.3-7.4-2.3-14.9-3.5-22.3c-2.5-15.6-3-31.3-3.8-47c-0.1-3.1-0.4-6.2-1.1-9.3
		c-0.7-3.6-0.2-7,0.4-10.4c0.8-4,1.6-8,2.3-12c0.2-1.2,0-2.6-0.4-3.9c-0.6-2.1-1.5-4-2.4-6.1c-5.4,2.8-6.9,7.8-8,13.4
		c-0.2-0.8-0.4-1.2-0.5-1.7c-1.6-5.1-3.2-10.2-4.7-15.3c-1.2-4.3-2.2-8.6-3.6-12.8c-1.8-5.5-1.4-11-0.5-16.4c0.8-4.7,2-9.3,3.3-14
		c1-3.8,2.3-7.5,3.7-11.2c1.1-3.2,2.3-6.3,3.7-9.3c2.3-5.1,4.6-10.1,7.1-15.1c0.8-1.5,1.3-2.8,1.2-4.3c0-1.4,0.6-2.2,1.9-2.6
		c5.1-1.7,10.1-3.5,15.3-4.9c4.1-1.1,8.2-1.9,12.2-2.7c0.2,1.4,0.1,2.6,0.6,3.7c0.4,1.1,1.4,1.9,2.1,2.8c1.8-3.5,3.5-6.6,5.2-9.8
		c0.2,0.1,0.3,0.2,0.5,0.3c-0.3,0.6-0.6,1.1-0.9,1.7c-0.3,0.6-0.7,1.3-0.9,1.9c-0.8,1.9-1.7,3.8-2.4,5.8c-0.5,1.5-1.2,1.8-2.4,0.6
		c-0.8-0.8-1.4-1.7-2.3-2.8c-1,6.1-2.2,11.9-3,17.8c-1,7.2-1.8,14.5-2.4,21.7c-0.6,6.5-0.8,13.1-1,19.7c-0.2,7.1-0.2,14.2-0.3,21.4
		c0,0.2,0.1,0.5,0.1,0.7h11.4c0-1.7,0-3.3,0-4.9c-0.1-12-0.2-24-0.1-36.1c0-3.5,0.9-6.9,1.5-10.4c0.2-1.2,0.9-2.3,1.5-3.5
		c-0.5,2.5-1.2,5-1.4,7.5c-0.4,6.1-0.8,12.1-0.8,18.2c-0.1,9.6,0,19.3,0,29.1h13.6c0-0.9-0.1-1.7-0.1-2.5
		c-0.1-5.3-0.4-10.6-0.3-15.8c0.2-11.5,0.1-23.1,1.9-34.5c1-6.5,2.4-13,3.7-19.5c0.4-1.9,1.1-3.7,1.7-5.9c-1.4,0.7-2.5,1.3-3.5,1.8
		c-1.2,0.6-1.8,0.3-2.2-1c-0.8-3.2-1.5-6.3-2.1-9.6c1.1,3.2,2.3,6.5,3.5,9.8c1.5-0.8,2.9-1.5,4.2-2.3c0.3-0.2,0.5-0.8,0.6-1.2
		c0.4-1.5,0.8-2.9,1.3-4.5c1.6,0.4,3.2,0.7,4.8,1.1c8.3,2.2,16.3,5,23.9,9c1.2,0.6,2.4,1.3,3.6,2c1.3,0.9,1.5,1.8,0.8,3.3
		c-0.1,0.3-0.3,0.6-0.2,0.9c1.2,6.2,2.4,12.3,3.7,18.5c1.2,5.9,2.3,11.8,3.4,17.7c1.3,6.8,2.3,13.5,3.8,20.2
		c1.9,8.8,2.9,17.7,3.7,26.6c1,10.5,1.7,21.1,2.6,31.6c0.1,1-0.2,1.6-1.1,2c-3.6,1.8-7.5,2.8-11.6,2.4c-2.7-0.2-5.4-0.7-8.1-1
		c-0.9-0.1-1.2-0.5-1.3-1.4c-0.5-4.9-1.1-9.7-1.7-14.6c-1-7.9-2-15.8-3-23.7c-0.2-1.9-0.4-3.9-0.7-5.8c-0.7-5-1.8-9.9-3.7-14.7
		c-1.1-2.9-2.2-5.9-3.2-8.6c-1.5,5.1-0.3,10.3,0.7,15.5c0.5,2.4,1,4.8,1.5,7.1c1.3,5.8,2.7,11.6,3.8,17.5c0.4,2,0,4.2,0.3,6.2
		c1.1,7.5,2.4,15,3.7,22.4c1.1,6.7,2.3,13.4,3.4,20.2c1.2,7.3,2.5,14.6,3.7,21.9c1.2,7,2.4,14,3.7,21c1.1,6,2.2,11.9,3.4,17.9
		c1.2,5.8,2.5,11.6,3.7,17.4c1.3,6.4,2.5,12.8,3.7,19.2c1.2,6.6,2.3,13.2,3.5,19.7c1.2,7.2,2.5,14.5,3.7,21.7
		c0.5,2.6,0.9,5.3,1.5,7.9c0.3,1.1-0.2,1.9-0.9,2.5c-2.6,2.7-5.3,5.2-8.5,7.3c-1.8,1.2-3.6,1.8-5.7,1.7c-4.2-0.1-8.3-0.8-12.3-2.1
		c-0.9-0.3-1.4-0.7-1.6-1.7c-1.4-5.4-2.9-10.7-4.4-16c-1.2-4.4-2.4-8.7-3.6-13.1c-1.2-4.2-2.4-8.4-3.5-12.6
		c-1.2-4.4-2.4-8.8-3.6-13.3c-1.3-4.7-2.6-9.4-3.8-14.1c-1.1-4.1-2.2-8.3-3.3-12.5c-1.3-5-2.6-10.1-3.9-15.1
		c-1.2-4.8-2.4-9.5-3.6-14.3c-1.3-5.1-2.6-10.2-3.9-15.3c-1.1-4.3-2.1-8.6-3.2-12.9c-1.2-4.8-2.5-9.6-3.8-14.4
		C167.1,191.7,167.1,191.7,167.1,191.7L167.1,191.7z M193.1,76.5c0.1-0.1,0.2-0.2,0.2-0.4c-1.8-1.4-3.7-2.8-5.5-4.2
		c-0.2-0.1-0.4-0.1-0.7-0.1c-0.8,0.2-3.1,2.8-3.3,3.9C186.9,76,190,76.3,193.1,76.5L193.1,76.5z"/>
	<path class="st1" d="M370.5,83.7c-1,1.9,0.3,3.5,0.9,5.3c-1.1-0.7-2.1-1.3-3.1-1.8c-0.7-0.3-1.5-0.5-2.1-0.4
		c-0.5,0.1-1.3,0.7-1.4,1.1c-0.1,0.5,0.4,1.4,0.9,1.7c1.3,0.7,2.7,1.1,4,1.7c0.4,0.2,0.9,0.3,1.3,0.4c-1.7,1-3.4,2.1-5,3.1
		c-1,0.6-1.4,1.4-0.9,2.3c0.6,1,1.7,0.9,2.5,0.4c1.4-0.9,2.7-2,4.1-3c0.2-0.2,0.4-0.5,0.6-0.8c0.1,0.1,0.2,0.1,0.3,0.2
		c-0.3,0.9-0.7,1.8-1,2.7c-0.4,1.2-0.7,2.4-1,3.6c-0.1,0.3,0.1,1,0.3,1.1c0.4,0.1,1,0,1.3-0.2c0.7-0.9,1.3-1.9,1.8-2.9
		c0.2-0.5,0.2-1.1,0.4-1.7c1.1,0.9,2.1,1.9,3.3,2.7c0.5,0.3,1.3,0.3,1.9,0.5c0-0.7,0.3-1.5,0-2.1c-0.6-1.2-1.4-2.2-2.2-3.5
		c1.1-0.4,2.2-0.8,3.5-1.3c0,1.4-0.2,2.7,0.1,3.9c0.2,0.9,0.8,1.7,1.3,2.6c-0.8,0.6-2.2,1.1-1.5,2.8c0.8,1.8,2.1,1.3,3.5,0.9
		c0.3,0.7,0.5,1.2,0.7,1.8c1.9,5.2,3.7,10.4,5.7,15.6c2,5.4,2.9,11.1,3.8,16.7c2.2,12.9,1.5,25.9,0.6,38.8
		c-0.8,12.2-2.1,24.4-3,36.6c-0.4,5.9-1,12,0.5,17.8c1.5,5.7,3.7,11.2,5.6,16.8c0.5,1.5,1.2,2.8,1.8,4.3c1.7,4.4,3.5,8.8,5.2,13.2
		c1.2,3,2.5,5.9,3.7,8.9c1.1,2.7,2.3,5.5,3.4,8.2c1.2,2.9,2.5,5.8,3.7,8.7c1.2,3,2.5,5.9,3.8,8.9c1.1,2.6,2.3,5.3,3.4,7.9
		c1.2,2.9,2.4,5.7,3.7,8.6c0.8,1.8,1.6,3.6,2.5,5.4c0.2,0.4,0.7,0.9,1.2,1c5.3,1.5,10.4,3.6,15.1,6.5c1.8,1.1,3.4,2.4,5,3.8
		c1.4,1.2,1.6,2.5,0.2,3.8c-1.6,1.4-3.4,2.7-5.4,3.6c-9.4,4.6-19.5,6-29.8,7.1c-7,0.8-14.1,1.5-21.1,2.6c-4.4,0.7-8.6,2-12.9,2.9
		c-6.6,1.3-13.2,2-19.8,0.4c-3.8-0.9-7-2.7-9.9-5.4c-2.9-2.7-3.1-6.3-4-9.6c-0.7-2.7-1.2-5.4-1.8-8.4c-13-1.1-26.1-3.7-39.4,1
		c0.3-2,0.5-3.7,0.8-5.4c0.7-6,1.5-12.1,2.2-18.1c0.3-2.8,0.6-5.4,1.9-8c1.1-2.2,1.7-4.7,2.6-7.1c1.4-3.8,2.8-7.6,4.2-11.4
		c1.1-2.9,2.2-5.9,3.3-8.8c1.3-3.5,2.6-7,3.9-10.4c1-2.7,2-5.5,3-8.2c1.4-3.7,2.7-7.4,4.1-11.1c1.2-3.2,2.3-6.4,3.5-9.5
		c1-2.6,1.9-5.3,2.9-7.9c0.2-0.5,0.3-1.1,0.3-1.7c-0.3-13.3-0.7-26.5-1.1-39.8c0-0.1,0-0.3-0.1-0.6c-0.7,0.9-1.3,1.7-1.8,2.5
		c-1.6,2.6-3.1,5.3-4.6,7.9c-1.8,3-3.5,6.1-5.2,9.1c-2.3,4-4.6,8-7.1,11.9c-2.7,4.4-5.5,8.6-8.3,12.9c-0.1,0.2-0.3,0.5-0.4,0.8
		c-2.5,5-4.4,10.1-5.9,15.5c-2,7-2.7,14.2-4,21.4c-2,11.2-2.6,22.5-3.4,33.8c-0.3,3.8-1.9,7.1-4.1,10.2c-0.1,0.1-0.2,0.3-0.3,0.5
		c-1.9,3.8-3.8,7.6-5.6,11.4c-1.2,2.5-2.4,5-3.1,7.6c-0.9,3.5-1.3,7-2,10.8c-0.2,0-0.8,0-1.3,0c-9.3-0.8-18.6-2.1-27.6-4.6
		c-3.8-1-7.5-2.5-11-4.2c-3.4-1.7-3.3-4.2,0.2-6.9c4.2-3.1,9.1-4.5,14.2-5.6c0.9-0.2,1.5-0.6,1.9-1.4c3-5.2,6.1-10.4,9-15.5
		c2.4-4.2,4.7-8.4,7-12.6c2.5-4.6,5-9.3,7.5-13.9c2.4-4.4,4.7-8.8,7.1-13.2c2.5-4.7,5-9.4,7.5-14.1c2.4-4.4,4.7-8.9,7.1-13.3
		c2.1-3.8,4-7.8,6.4-11.4c2.8-4.2,3.6-8.9,4-13.6c1.3-13.5,2.3-27.1,3.5-40.6c0.2-2.8,0.4-5.7,0.9-8.5c0.9-5.7,1.9-11.4,3.2-17
		c1-4.1,2.5-8,3.9-12c0.9-2.7,2.1-5.3,3.2-7.8c1.1-2.4,2.2-4.8,3.4-7.2c0.1-0.3,0.7-0.6,1-0.6c1.9,0.1,3.8,0.3,5.8,0.5
		c-1.9,0.9-3.9,1.8-5.8,2.7c-0.2,0.1-0.5,0.2-0.7,0.4c-0.8,0.7-0.7,1.3,0.4,1.6c1.7,0.5,3.1-0.6,4.6-1.2c0.3-0.1,0.6-0.4,1-0.6
		c0,1.5-0.1,2.8,0,4.2c0.1,0.6,0.6,1.1,1,1.6c0.6-0.4,1.5-0.8,1.8-1.4c0.5-1.2,0.7-2.6,1-4c1.3,0.5,2.6,1,3.9,1.5
		c0.4,0.2,0.9,0.3,1.2,0.3c0.7-0.2,1.3-0.5,1.9-0.8c-0.3-0.6-0.5-1.5-1-1.9c-1.2-0.8-2.6-1.3-4.1-2.1c1.4-0.4,2.8-0.7,4-1.3
		c0.7-0.3,1.3-1.1,1.9-1.7c-0.8-0.1-1.6-0.4-2.3-0.3c-1,0.1-1.9,0.4-2.9,0.6c0.5-1.3,1-2.6,1.3-3.8c0.1-0.6-0.3-1.4-0.4-2.1
		c-0.7,0.3-1.7,0.5-2.1,1c-0.7,0.8-1,1.9-1.6,3c-0.2-1.2-0.4-2.3-0.7-3.3c-0.2-0.6-0.5-1.2-0.9-1.5c-0.6-0.3-1.5-0.6-2-0.3
		c-0.4,0.2-0.8,1.2-0.7,1.8c0.4,1.7,1.1,3.3,1.7,5c-1.5-0.4-3.2-0.9-5.1-1.5c0.9-1.6,1.8-3.2,2.6-4.7c0.8-1.4,1.5-2.8,2.2-4.1
		c0.6-1.2,0.6-1.2,2.3-1c-0.6,0.4-1.1,0.6-1.4,0.9c-0.6,0.5-1.4,1.1-0.7,2c0.6,0.8,1.6,0.9,2.4,0.3c0.5-0.3,0.9-0.8,1.3-1.2
		c0.7,0.6,1.2,1.4,2,1.7c0.8,0.2,1.9,0.1,2.6-0.3c0.8-0.5,0.1-1.3-0.4-1.9c-0.5-0.6-1-1.3-1.5-2c1-0.3,1.9-0.6,2.8-0.9
		c0.4-0.2,0.9-0.8,0.8-1c-0.1-0.4-0.6-0.9-1.1-0.9c-0.8-0.2-1.7,0-2.5,0c-0.1-1.9-1-2.9-2.5-3c0.1-1.5,0.3-3.1,0.4-4.6
		c1.3-0.5,3.3-0.3,3.1-2.5c-0.1-1.5-1.3-1.7-2.1-1.8c-0.1-1.1,0.3-2.6-0.3-3.1c-0.6-0.5-2-0.2-3.2-0.3c-0.3-0.7-0.7-1.8-1.3-3.2
		c1.7,0.6,2.8,0,3.9-1.9c0.4,0.7,0.5,1.2,0.9,1.5c0.4,0.4,1,1,1.5,1c0.8,0,1.6-0.3,2.2-0.8c0.2-0.2-0.2-1.4-0.6-1.9
		c-0.4-0.5-1.1-0.9-1.7-1.3c0.1-0.2,0.2-0.3,0.2-0.5c0.6-0.2,1.4-0.2,1.9-0.5c0.6-0.4,1.2-1,1.7-1.4c-0.7-0.3-1.4-0.7-2.1-0.9
		c-0.5-0.1-1,0.1-1.6,0.1c-0.2-1.1,0.7-2.9-1.5-3c-1.5,0-2,0.8-2.1,3.2c-1.4-0.6-2.7-1.3-3.9,0.2c-1.1-2.4-1.2-4.4-0.1-5
		c0.8,1.2,1.9,1.9,3.3,1.4c1.3-0.5,1.6-1.7,1.5-2.9c1.3-0.4,3.1-0.2,3.1-2.3c0-1.8-1.5-1.8-2.5-2c0.2-1.1,0.4-2.2,0.7-3.5
		c0.8-0.4,1.9-1,3.4-1.7c-0.2,0.9-0.4,1.6-0.4,2.2c0,0.9,0,1.8,0.2,2.7c0.2,1.1,0.9,1.4,1.8,0.9c0.8,1.2,1.6,2.3,2.5,3.6
		c-1.2,0-2.3,0-3.5,0c-0.5,0-1.1,0-1.5,0.2c-0.5,0.2-1.2,0.7-1.1,1c0.1,0.5,0.6,1.1,1,1.3c1.1,0.4,2.3,0.5,3.5,0.7
		c0.4,0.1,0.9,0.1,1.6,0.2c-0.5,0.9-1,1.5-1.3,2.3c-0.3,0.9-0.6,1.9-0.7,2.9c0,0.5,0.3,1.2,0.7,1.4c0.5,0.2,1.4,0,1.7-0.3
		c0.7-0.8,1.2-1.8,1.7-2.8c0.3-0.5,0.6-1.1,0.9-1.8c0.7,1.6,1.3,3.1,2,4.4c0.3,0.5,1,0.7,1.5,1c0.1-0.6,0.5-1.2,0.4-1.7
		c-0.3-1.1-0.8-2.2-1.2-3.4c1.4,0.4,2.7,0.9,4,1.2c0.9,0.2,2.2,0.6,2.6-0.7c0.4-1.2-0.9-1.6-1.8-2c-0.8-0.4-1.7-0.6-2.5-1.1
		c0.7-0.1,1.5-0.2,2.2-0.4c0.9-0.3,1.9-0.6,2.7-1.1c0.4-0.3,0.9-1.3,0.8-1.4c-0.5-0.5-1.3-1.2-1.9-1.2c-1.4,0.2-2.7,0.8-4,1.3
		c-0.6,0.2-1.2,0.6-1.8,0.9c0.6-2.1,1.1-4.1,1.7-6.1c1.2,1,2.4,0.1,3.3-0.5c0.9,0.8,1.5,1.9,2.5,2.3c1.6,0.7,2.5-0.4,2-2
		c-0.3-0.8-0.7-1.5-1-2.4c1-0.1,2-0.2,3-0.4c0.4-0.1,0.7-0.6,1.1-0.9c-0.4-0.4-0.6-0.9-1-1c-0.7-0.3-1.5-0.3-2.4-0.5
		c0.2-0.5,0.3-0.8,0.5-1.2c1.6,0.2,3.2,0.5,4.7,0.7c-0.5,1.5-1,2.9-1.4,4.3c-0.2,0.8-0.4,2,0.6,2.2c0.7,0.1,1.8-0.4,2.2-1
		c0.7-0.9,1-2.1,1.5-3.2c0.1-0.2,0.2-0.3,0.2-0.3c0.8,1.4,1.5,2.9,2.4,4.3c0.2,0.4,0.8,0.6,1.2,0.8c0.1-0.5,0.5-1,0.4-1.4
		c-0.2-1.2-0.6-2.3-0.9-3.6c0.9,0.3,1.8,0.5,2.6,0.8c0.5,0.1,1,0.3,1.5,0.4c0.9,0.1,2,0.4,2.4-0.7c0.4-1.1-0.7-1.5-1.5-1.8
		c-1-0.4-2-0.8-3.1-1.3c1.2-0.3,2.3-0.5,3.4-0.8c0.6-0.2,1.3-0.4,1.6-0.8c0.4-0.4,0.7-1.2,0.5-1.7c-0.1-0.5-1-1.1-1.4-1
		c-1.7,0.4-3.4,1.1-5.1,1.7c-0.3,0.1-0.6,0.3-1,0.5c0.4-1.5,0.8-2.7,1-4c0.1-0.6,0.3-1.4,0.1-2c-0.2-0.7-0.8-1.5-1.4-1.7
		c-0.9-0.3-1.9,0.3-2,1.3c-0.3,2-0.4,3.9-0.6,5.9c-0.2-0.3-0.4-0.8-0.6-1.2c-0.9-1.4-1.8-2.9-2.7-4.3c-0.3-0.4-0.8-0.5-1.3-0.8
		c-0.2,0.5-0.8,1.2-0.6,1.6c0.4,1.2,1,2.3,1.6,3.5c0.1,0.2,0.3,0.4,0.6,0.8c-0.6,0-1.1,0-1.5,0c-1.9,0.2-3.9,0.3-5.7,0.9
		c-0.8,0.2-1.3,1.5-2,2.2c-0.8-0.2-1.8-0.6-2.9-0.7c-0.4,0-1,0.7-1.3,1.2c-0.6,1.1,0,1.7,2.6,2.6c-0.6,0.3-1.1,0.5-1.5,0.9
		c-0.4,0.3-0.8,0.7-1.2,1.1c-0.1-0.1-0.4-0.3-0.4-0.4c0.7-1.5-0.4-2.1-1.3-2.7c-1.1-0.8-2.3-1.3-3.5-1.9c1.5-0.5,3-0.9,4.5-1.4
		c0.4-0.1,0.7-0.2,1-0.5c0.2-0.2,0.5-0.6,0.4-0.8c-0.1-0.3-0.5-0.6-0.8-0.6c-1,0-2,0.2-3,0.3c-0.6,0.1-1.1,0.2-1.7,0.3
		c0.6-1.2,1.2-2.3,1.6-3.5c0.3-0.8,0.8-2-0.4-2.5c-1-0.5-1.8,0.3-2.3,1.2c-0.5,0.8-0.9,1.7-1.4,2.5c-0.4-1.3-0.6-2.6-1-3.8
		c-0.5-1.5-1.4-2-2.4-1.5c-1.2,0.6-1.6,1.4-0.8,2.9c0.6,1.2,1,2.6,1.6,4.1c-1.5-0.5-2.8-1-4.1-1.4c-0.8-0.2-1.7-0.4-2.5-0.3
		c-0.6,0.1-1.4,0.8-1.5,1.3c-0.1,0.4,0.5,1.4,1,1.6c1.5,0.5,3.1,0.7,4.7,1c0.6,0.1,1.2,0,1.8,0.3c-1.6,0.6-3.1,1.1-4.7,1.8
		c-0.7,0.3-1.4,0.6-2,1.1c-0.3,0.2-0.4,0.6-0.5,0.9c-0.1,0.4-0.1,0.7-0.2,1.1c-0.4-0.2-0.9-0.2-1.2-0.5c-0.7-0.8-1.5-1-2.6-0.6
		c-1.4,0.6-1.5,1.4-0.7,3.3c-0.8,0-1.8-0.2-2.4,0.2c-0.6,0.4-0.9,1.3-1.5,2.1c-1.1-0.5-2.5-1.2-3.9-1.9c-2.5-1.3-5-2.6-7.5-3.9
		c-0.3-0.2-0.8-0.7-0.8-1c0.5-3.5,1.2-6.8,3.8-9.4c2.7-2.9,6.3-3.9,10.1-4.2c3.5-0.3,7-0.7,10.5-1.1c1.7-0.2,3.6-0.4,3.9-2.8
		c5.3,0.7,10.5,0.8,15.7-0.5c1.4,2.7,3.9,2.5,6.3,2.6c0,0.2,0,0.3,0,0.4c-0.9,0.5-1.8,1.2-1.1,2.2c0.7,1.1,1.6,0.2,2.4-0.2
		c0.3-0.1,0.6-0.3,1-0.5c0.1,0.7,0.2,1.3,0.4,1.8c0.1,0.3,0.5,0.5,0.7,0.8c0.3-0.3,0.6-0.5,0.7-0.9c0.2-0.4,0.1-0.8,0.2-1.1
		c0.8-0.1,1.6-0.1,2.2-0.5c0.2-0.1,0-1.1,0-1.7c5.2,0,9.8,2.4,11.7,7.5c0,0.1,0.1,0.2,0.1,0.3c1.2,3.3,0.9,4-1.8,6.4
		c-1.1,1-1.9,2.3-2.9,3.5c-0.3,0.3-0.7,0.7-1.1,0.6c-1.9-0.1-2.4,0.5-1.8,2.3c0.1,0.2,0.1,0.4,0.2,0.5c-0.9,0.8-2.6,1.1-2.1,2.8
		c0.4,1.4,1.6,1.9,3.1,2c0.2,1.2,0,2.8,1.9,3.1c-0.4,1.7-0.8,3.3-1.2,5.2c-1.3-2.1-2.7-0.8-4.2-0.6c0.2-0.6,0.4-1.2,0.4-1.7
		c0-0.5-0.2-1.5-0.4-1.6c-0.6,0-1.4,0.1-1.9,0.5c-0.5,0.4-0.8,1.2-1.1,1.8c-0.8-0.2-1.8-0.5-2.7-0.4c-0.6,0.1-1.2,0.9-1.8,1.4
		c0.5,0.5,0.8,1.2,1.4,1.6c0.7,0.4,1.6,0.6,2.4,1c-0.6,0.8-1.2,1.4-1.7,2.1c-0.2,0.3-0.4,1.1-0.2,1.2c0.4,0.3,1,0.4,1.4,0.2
		c0.8-0.3,1.5-0.8,2.2-1.1c1.3,2.2,1.9,2.5,3.1,1.7c1-0.6,0.9-1.8-0.2-3.5c0.9-0.2,1.8-0.4,2.9-0.7c-0.3,1.1-0.7,2.2-1,3.2
		c-0.1,0.3-0.2,0.6-0.2,0.9c0.2,1.3,0,2.3-1.3,3.1c-1,0.6-1,1.4-0.2,2.4c1.1,1.4,1,1.7-0.8,2.2c-1.1,0.3-2.2,0.8-3.2,1.1
		c0.6-1.5,1.3-2.9,1.9-4.4c0.2-0.5-0.1-1.1-0.2-1.7c-0.4,0.2-1,0.3-1.3,0.7c-0.8,0.9-1.5,2-2.1,2.9c-0.8-1.2-1.6-2.6-2.5-3.7
		c-0.4-0.5-1.2-0.5-1.8-0.8c0.8-1.1,0.7-2.2,0-3.3c1.4-0.5,2.3-1.3,1.8-2.8c-0.6-1.8-2.2-0.8-3.4-1.1c0.4-2.2,0.1-2.9-1.1-3.3
		c-1.4-0.4-2.3,0.2-3,1.7c-1.1-0.1-2.3-0.6-3.1-0.3c-0.5,0.2-0.4,1.7-0.7,2.9c-0.7,0.3-1.6,1-1.4,2.4c0.3,1.7,1.6,2,3.1,2.2
		c0.1,1.3,0,2.8,1.7,3c1.6,0.2,2.4-0.7,2.6-1.9C368.4,83.4,369.5,83.6,370.5,83.7L370.5,83.7z M360.7,95.8c1.6-0.6,3.3-1.1,4.9-1.9
		c1-0.5,0.9-1.8-0.2-2.2c-0.6-0.2-1.4-0.3-2-0.1c-1.4,0.5-2.7,1.2-4,1.7c-0.3,0.1-0.6,0.3-1.2,0.5c1.2-2.1,1.7-4.1,1.6-6.2
		c-0.1-0.9-0.4-1.5-1.5-1.6c-1-0.1-1.6,0.3-1.9,1.2c-0.2,0.8-0.4,1.6-0.4,2.4c-0.1,1.2,0,2.4,0,3.9c-0.8-1.3-1.4-2.2-2-3.2
		c-0.5-0.9-1-1.8-1.7-2.6c-0.3-0.4-1.1-0.7-1.4-0.6c-0.4,0.2-0.7,1-0.6,1.4c0.2,1,0.7,1.9,1.2,2.8c0.3,0.5,0.7,1,1.2,1.6
		c-1.8,0.1-3.3,0.1-4.8,0.3c-0.6,0.1-1,0.7-1.6,1.1c0.5,0.4,0.9,1.1,1.5,1.2c1.5,0.4,3,0.6,4.6,0.9c-0.1,0.3-0.2,0.5-0.3,0.8
		c-0.5,1.1-1.1,2.2-1.5,3.3c-0.2,0.8-0.5,1.9,0.6,2.4c1.1,0.5,1.9-0.3,2.4-1.2c0.6-1.1,1.2-2.3,1.9-3.5c0.1,0.2,0.3,0.4,0.4,0.6
		c0.6,1.3,1.1,2.7,1.8,4c0.2,0.4,0.9,0.5,1.4,0.7c0.1-0.5,0.5-1,0.4-1.4c-0.3-1.2-0.7-2.4-1.1-3.7c0.4,0.1,0.8,0.3,1.2,0.4
		c1.2,0.3,2.4,0.7,3.6,0.9c0.5,0.1,1.1-0.4,1.6-0.6c-0.3-0.6-0.4-1.3-0.8-1.6C362.9,96.7,361.7,96.2,360.7,95.8L360.7,95.8z
		 M360.4,50l0.2-0.4c1.3,2.6,3.4,2.8,4.9,0.4c0.5-0.8,1-0.9,1.8-1.1c0.8-0.2,1.8-0.9,2.1-1.7c0.4-1-0.7-1.5-1.4-1.9
		c-0.3-0.2-0.6-0.2-0.9-0.4c0.1,0,0.3,0,0.4,0c0.2-1,0.8-2.5,0.4-3c-0.6-0.7-2-0.6-3.3-0.8c-0.6-1.4-1.3-1.9-2.7-1.6
		c-1.8,0.4-1.4,1.9-1.5,3.1c-2.4-0.7-3.3-0.6-3.7,0.9c-0.2,0.6,0,1.4,0.3,1.9c0.4,0.5,1.1,0.7,1.8,1c-0.8,0.7-2.1,1.4-1.2,2.5
		C358.2,49.7,359.5,49.7,360.4,50L360.4,50z M370.8,106.9c1.3-0.4,2.1-1.2,1.8-2.6c-0.5-2.1-2.3-1.1-3.6-1.3c1-1.6,0.8-2.4-0.5-3.1
		c-0.5-0.2-1.2-0.5-1.6-0.3c-0.8,0.5-1.5,1.2-2,1.6c-1.1-0.1-2.3-0.5-3-0.1c-0.5,0.2-0.4,1.7-0.6,2.8c-0.9,0.3-1.7,1.1-1.4,2.6
		c0.4,1.6,1.7,1.8,3.1,2c0,1.4,0,2.8,1.8,3.1c1.7,0.2,2.3-0.9,2.6-2.4c1.1,1,2.2,1.6,3.4,0.7C372,109.1,371.2,108,370.8,106.9
		L370.8,106.9z M355.8,80.4c1.3-2.3,1.2-3.4-0.4-4c-0.5-0.2-1.3-0.3-1.5-0.1c-0.6,0.7-1,1.7-1.5,2.5c-0.9-0.6-1.3-2.6-3.1-1.7
		c-1,0.5-0.7,1.6,0.6,3.4c-0.6,0.5-1.4,0.8-1.9,1.4c-0.4,0.5-0.7,1.4-0.5,1.9c0.4,0.9,1.3,1.1,2.3,0.6c0.8-0.4,1.7-0.8,2.6-1.2
		c0.2,0.8,0.3,1.7,0.6,2.4c0.2,0.4,0.9,1.1,1,1.1c0.5-0.2,1.1-0.7,1.3-1.2c0.3-0.6,0.2-1.3,0.3-1.9c2.5,0.3,3.3,0,3.4-1.1
		C359.2,81.4,358.2,80.7,355.8,80.4L355.8,80.4z M350.4,107.1c-0.7,0.4-1.5,0.7-1.8,1.3c-0.4,0.7-0.4,1.6-0.2,2.3
		c0.1,0.3,1.3,0.4,1.9,0.3c0.9-0.2,1.7-0.8,2.6-1.2c0.2,0.9,0.2,1.7,0.6,2.5c0.2,0.4,0.8,1,1.1,1c0.4,0,1-0.6,1.1-1
		c0.2-0.7,0.2-1.5,0.3-2.2c1.2,0.1,2.8,1,3.2-0.7c0.6-2.4-1.9-2-3.1-2.7c1.3-1.9,1.2-3.2-0.2-3.7c-0.6-0.2-1.7-0.1-2.1,0.3
		c-0.5,0.5-0.6,1.4-0.9,2.3c-0.8-1.1-1.3-2.7-3.1-2C348.7,104.2,349,105.4,350.4,107.1L350.4,107.1z M373,64.5
		c-1.3-0.4-1.3-3.3-3.4-1.5c-1.8,1.6,0.7,2.1,0.9,3.3c-0.5,0.2-1,0.3-1.4,0.6c-1,0.5-1.6,1.9-1.1,2.8c0.6,1.1,1.6,0.8,2.5,0.4
		c0.7-0.3,1.4-0.8,2.1-1.2c0.3,1,0.6,1.9,1,2.8c0.1,0.3,0.6,0.8,0.8,0.8c0.4-0.1,0.9-0.5,1-0.8c0.2-0.7,0.3-1.6,0.4-2.3
		c2.9,0,3.3-0.1,3.3-1.1c0-0.4-0.1-1-0.4-1.2c-0.9-0.5-1.8-0.8-2.7-1.2c1.5-2.6,1.5-2.6-0.1-3.6C373.3,60.6,373.8,63.5,373,64.5
		L373,64.5z M353.5,123.8c0.6,0.9,1.1,1.6,1.6,2.4c0.5-0.7,0.9-1.4,1.2-1.8c0.8-0.4,1.8-0.7,1.9-1.1c0.4-1.4-1-1.4-1.9-1.7
		c0.8-1.6,0.7-2.3-0.4-2.7c-1.6-0.6-1.8,0.7-2.1,1.7c-0.8-0.4-0.9-2.1-2.2-1.1c-1.6,1.2,0.7,1.5,0.5,2.5c-1,0.4-2.4,0.9-1.7,2.2
		C351.4,125.9,352.6,123.9,353.5,123.8L353.5,123.8z M338.3,132.4c0,0-0.5,0.1-0.6,0.4c-0.2,0.6-0.3,1.3-0.5,1.9
		c0.6,0,1.3,0.3,1.7,0c1.3-0.9,1.9-0.6,2.1,0.9c0,0.3,0.5,0.6,0.8,0.9c0.2-0.3,0.6-0.6,0.7-0.9c0.1-0.4,0.1-0.9,0.2-1.4
		c0.1,0.1,0.1,0.2,0.2,0.3c0.7-0.3,2-0.4,2.1-0.9c0.5-1.7-1.4-1.3-2.1-1.9c0.8-1.5,0.7-2.3-0.4-2.6c-1.7-0.5-1.4,1.1-1.8,1.8
		c-1-0.1-1.1-2.3-2.4-1.1C337.9,130.2,338.3,131.3,338.3,132.4L338.3,132.4z"/>
	<path class="st1" d="M350.8,60.2c0.3-0.9,0.6-1.8,0.9-2.6c1.7,0.8,3.2,1.4,4.4,2c-0.2,2.4-0.4,4.7-0.6,7
		C353.6,64.9,353.4,61.7,350.8,60.2L350.8,60.2z"/>
	<path class="st1" d="M339.5,77.5c-0.2-0.8-0.3-1.4-0.5-2c0.9,0.1,1.7,0.2,2.8,0.3C341.1,76.4,340.4,76.9,339.5,77.5L339.5,77.5z"/>
	<path class="st0" d="M193.1,76.5c-3.1-0.2-6.2-0.5-9.3-0.7c0.2-1.1,2.5-3.8,3.3-3.9c0.2,0,0.5,0,0.7,0.1c1.8,1.4,3.7,2.8,5.5,4.2
		C193.2,76.3,193.2,76.4,193.1,76.5L193.1,76.5z"/>
	<path class="st0" d="M360.7,95.8c1,0.4,2.2,0.8,3.3,1.5c0.4,0.3,0.5,1.1,0.8,1.6c-0.5,0.2-1.1,0.7-1.6,0.6
		c-1.2-0.2-2.4-0.6-3.6-0.9c-0.4-0.1-0.9-0.3-1.2-0.4c0.4,1.3,0.9,2.5,1.1,3.7c0.1,0.4-0.2,0.9-0.4,1.4c-0.5-0.2-1.2-0.3-1.4-0.7
		c-0.7-1.3-1.2-2.7-1.8-4c-0.1-0.2-0.2-0.4-0.4-0.6c-0.6,1.2-1.3,2.4-1.9,3.5c-0.5,0.9-1.3,1.7-2.4,1.2c-1.1-0.5-0.8-1.6-0.6-2.4
		c0.4-1.2,1-2.2,1.5-3.3c0.1-0.2,0.2-0.5,0.3-0.8c-1.6-0.3-3.1-0.5-4.6-0.9c-0.6-0.2-1-0.8-1.5-1.2c0.5-0.4,1-1,1.6-1.1
		c1.5-0.2,3-0.2,4.8-0.3c-0.5-0.6-0.9-1-1.2-1.6c-0.5-0.9-1-1.8-1.2-2.8c-0.1-0.4,0.2-1.2,0.6-1.4c0.3-0.2,1.1,0.2,1.4,0.6
		c0.7,0.8,1.1,1.7,1.7,2.6c0.6,1,1.2,2,2,3.2c0-1.5-0.1-2.7,0-4c0.1-0.8,0.2-1.6,0.4-2.4c0.3-0.8,0.9-1.3,1.9-1.2
		c1,0.1,1.4,0.7,1.5,1.6c0.1,2.1-0.3,4.1-1.6,6.2c0.6-0.2,0.9-0.4,1.2-0.5c1.3-0.6,2.6-1.3,4-1.7c0.6-0.2,1.4-0.1,2,0.1
		c1.1,0.4,1.3,1.8,0.2,2.2C364,94.6,362.3,95.2,360.7,95.8L360.7,95.8z"/>
	<path class="st0" d="M360.4,50c-0.9-0.3-2.2-0.3-2.8-1c-0.8-1.1,0.4-1.8,1.2-2.5c-0.6-0.3-1.4-0.5-1.8-1c-0.3-0.5-0.5-1.4-0.3-1.9
		c0.4-1.5,1.3-1.6,3.7-0.9c0.1-1.2-0.3-2.7,1.5-3.1c1.4-0.3,2,0.2,2.7,1.6c1.3,0.3,2.7,0.2,3.3,0.8c0.4,0.5-0.2,1.9-0.4,3
		c-0.1,0-0.3,0-0.4,0c0.3,0.1,0.6,0.2,0.9,0.4c0.8,0.5,1.9,1,1.4,1.9c-0.3,0.8-1.3,1.5-2.1,1.7c-0.8,0.2-1.3,0.3-1.8,1.1
		c-1.5,2.4-3.6,2.2-4.9-0.4L360.4,50L360.4,50z"/>
	<path class="st0" d="M370.8,106.9c0.4,1.1,1.1,2.2,0.1,3c-1.2,0.9-2.3,0.2-3.4-0.7c-0.3,1.5-0.9,2.7-2.6,2.4
		c-1.8-0.2-1.8-1.7-1.8-3.1c-1.4-0.1-2.8-0.3-3.1-2c-0.3-1.4,0.5-2.2,1.4-2.6c0.2-1.2,0.1-2.6,0.6-2.8c0.8-0.4,1.9,0,3,0.1
		c0.5-0.4,1.1-1.2,2-1.6c0.4-0.2,1.1,0,1.6,0.3c1.4,0.7,1.5,1.5,0.5,3.1c1.3,0.3,3.2-0.8,3.6,1.3C373,105.7,372.1,106.4,370.8,106.9
		L370.8,106.9z"/>
	<path class="st0" d="M370.5,83.7c-1.1-0.2-2.2-0.3-3.5-0.5c-0.2,1.2-1,2.2-2.6,1.9c-1.7-0.2-1.6-1.7-1.7-3
		c-1.5-0.2-2.8-0.4-3.1-2.2c-0.2-1.4,0.7-2,1.4-2.4c0.2-1.2,0.2-2.7,0.7-2.9c0.8-0.4,2,0.1,3.1,0.3c0.7-1.5,1.7-2.1,3-1.7
		c1.2,0.4,1.5,1.1,1.1,3.3c1.2,0.3,2.8-0.7,3.4,1.1c0.5,1.5-0.4,2.3-1.8,2.8C371.1,81.6,371.3,82.7,370.5,83.7L370.5,83.7
		L370.5,83.7z"/>
	<path class="st0" d="M355.8,80.4c2.4,0.3,3.4,1,3.2,2.2c-0.1,1.1-0.8,1.3-3.4,1.1c-0.1,0.6,0,1.4-0.3,1.9c-0.2,0.5-0.8,1-1.3,1.2
		c-0.1,0.1-0.8-0.6-1-1.1c-0.3-0.7-0.4-1.5-0.6-2.4c-0.9,0.4-1.8,0.8-2.6,1.2c-1,0.5-1.9,0.2-2.3-0.6c-0.2-0.5,0.1-1.4,0.5-1.9
		c0.5-0.6,1.3-1,1.9-1.4c-1.4-1.8-1.6-2.9-0.6-3.4c1.7-0.9,2.2,1,3.1,1.7c0.5-0.9,0.9-1.8,1.5-2.5c0.2-0.2,1-0.1,1.5,0.1
		C357,77.1,357.1,78.1,355.8,80.4L355.8,80.4z"/>
	<path class="st0" d="M350.4,107.1c-1.4-1.8-1.7-3-0.5-3.5c1.7-0.8,2.2,0.9,3,2c0.3-0.8,0.4-1.8,0.9-2.3c0.4-0.4,1.5-0.5,2.1-0.3
		c1.5,0.6,1.5,1.8,0.2,3.7c1.2,0.7,3.8,0.2,3.1,2.7c-0.5,1.7-2.1,0.7-3.2,0.7c-0.1,0.7,0,1.5-0.3,2.2c-0.2,0.4-0.7,1-1.1,1
		c-0.4,0-1-0.5-1.1-1c-0.3-0.8-0.4-1.6-0.6-2.5c-0.9,0.4-1.7,1-2.6,1.2c-0.6,0.2-1.9,0-1.9-0.3c-0.2-0.7-0.1-1.7,0.2-2.3
		C349,107.9,349.8,107.6,350.4,107.1L350.4,107.1z"/>
	<path class="st0" d="M373,64.5c0.8-1,0.3-3.9,3-2.4c1.6,0.9,1.6,1,0.1,3.6c0.9,0.4,1.9,0.7,2.7,1.2c0.3,0.2,0.4,0.8,0.4,1.2
		c0,1-0.4,1.2-3.3,1.1c-0.1,0.8-0.1,1.6-0.4,2.3c-0.1,0.4-0.6,0.7-1,0.8c-0.2,0.1-0.7-0.5-0.8-0.8c-0.4-0.9-0.6-1.8-1-2.8
		c-0.8,0.4-1.4,0.9-2.1,1.2c-0.9,0.4-1.9,0.7-2.5-0.4c-0.5-0.9,0-2.2,1.1-2.8c0.5-0.2,1-0.4,1.4-0.6c-0.2-1.2-2.7-1.7-0.9-3.3
		C371.7,61.2,371.7,64.1,373,64.5L373,64.5z"/>
	<path class="st0" d="M353.5,123.8c-0.8,0.1-2,2.1-3.1,0.3c-0.7-1.2,0.7-1.8,1.7-2.2c0.2-0.9-2.1-1.3-0.5-2.5c1.4-1,1.4,0.7,2.2,1.1
		c0.3-1,0.5-2.3,2.1-1.7c1.1,0.4,1.1,1.2,0.4,2.7c0.9,0.3,2.2,0.3,1.9,1.7c-0.1,0.5-1.1,0.7-1.9,1.1c-0.3,0.4-0.7,1.1-1.2,1.8
		C354.6,125.4,354.1,124.7,353.5,123.8L353.5,123.8z"/>
	<path class="st0" d="M338.3,132.4c-0.1-1.1-0.4-2.2-0.1-2.5c1.3-1.2,1.4,1,2.4,1.1c0.5-0.8,0.2-2.4,1.8-1.8c1,0.3,1.1,1.2,0.4,2.6
		c0.7,0.6,2.7,0.2,2.1,1.9c-0.1,0.5-1.4,0.6-2.1,0.9c-0.1-0.1-0.1-0.2-0.2-0.3c0,0.5,0,0.9-0.2,1.4c-0.1,0.4-0.5,0.6-0.7,0.9
		c-0.3-0.3-0.7-0.6-0.8-0.9c-0.1-1.6-0.8-1.8-2.1-0.9c-0.4,0.2-1.1,0-1.7,0c0.1-0.6,0.2-1.3,0.5-1.9
		C337.8,132.6,338.3,132.4,338.3,132.4L338.3,132.4z"/>
</g>
</svg>
